Coordinates
version=1
nRows=15
nColumns=42
inDegrees=yes

Units are S.I. units (second, meters, Newtons, ...)
If the header above contains a line with 'inDegrees', this indicates whether rotational values are in degrees (yes) or radians (no).

endheader
time	pelvis_tilt	pelvis_list	pelvis_rotation	pelvis_tx	pelvis_ty	pelvis_tz	hip_flexion_r	hip_adduction_r	hip_rotation_r	knee_angle_r	knee_adduction_r	knee_angle_r_beta	ankle_angle_r	subtalar_angle_r	mtp_angle_r	hip_flexion_l	hip_adduction_l	hip_rotation_l	knee_angle_l	knee_adduction_l	knee_angle_l_beta	ankle_angle_l	subtalar_angle_l	mtp_angle_l	lumbar_extension	lumbar_bending	lumbar_rotation	arm_flex_r	arm_add_r	arm_rot_r	elbow_flex_r	pro_sup_r	wrist_flex_r	wrist_dev_r	arm_flex_l	arm_add_l	arm_rot_l	elbow_flex_l	pro_sup_l	wrist_flex_l	wrist_dev_l
      3.55000000	      7.44657280	      2.79090614	     -2.49095704	      0.29263981	      0.93605465	      0.21029621	      6.75286439	     -5.46221681	    -37.08942176	     28.56253769	    -12.14401076	      0.49851033	     28.22656964	     33.20940984	     -7.50046192	     23.27211826	      2.68465522	    -13.88018601	     50.60465345	     -6.18889300	      0.88321782	     12.32763787	     -4.54395720	     -7.50046192	    -40.93690600	     -1.40505986	     -0.16772117	      8.39251137	    -12.40658410	      4.08634189	     38.72266372	     90.00000001	      0.00000000	      0.00000000	     -0.27358622	     -9.43021533	      3.95721194	     48.83882801	     90.00000001	      0.00000000	      0.00000000
      3.56000000	      7.21710718	      2.63558215	     -2.26240738	      0.29809798	      0.93532971	      0.20962317	      6.62354252	     -5.13746090	    -36.90032957	     28.56235800	    -12.33117130	      0.49850719	     28.32560228	     32.58715096	     -7.50045502	     23.91919701	      2.57259344	    -14.14583377	     48.12003559	     -6.58418705	      0.83985306	     12.21799138	     -4.24432080	     -7.50045502	    -40.77368728	     -1.30520683	     -0.16737168	      8.32766828	    -12.45899257	      4.08689129	     38.85350924	     90.00000001	      0.00000000	      0.00000000	     -0.39405810	     -9.43726169	      3.93634687	     48.86101825	     90.00000001	      0.00000000	      0.00000000
      3.57000000	      7.21662484	      2.61229534	     -2.07620264	      0.30369131	      0.93494365	      0.20893880	      6.24213983	     -5.11053321	    -36.82881405	     28.71332198	    -12.36977057	      0.50114201	     28.77671484	     32.08281588	     -7.50044617	     24.14515248	      2.69922409	    -14.86700313	     45.22798443	     -7.42588222	      0.78937724	     11.90820487	     -3.17186744	     -7.50044617	    -40.87685164	     -1.41376100	     -0.32929483	      8.30703190	    -12.41353502	      4.13265636	     38.99797318	     90.00000001	      0.00000000	      0.00000000	     -0.41834000	     -9.56038504	      3.87402777	     48.74180613	     90.00000001	      0.00000000	      0.00000000
      3.58000000	      7.26544120	      2.47153989	     -1.92344246	      0.30969823	      0.93428121	      0.20810740	      5.77648660	     -5.00940513	    -36.85542481	     28.88951229	    -12.40707954	      0.50421711	     29.48425094	     32.16346050	     -7.50041633	     24.45168424	      2.39983901	    -17.46133211	     42.47155630	     -9.14541484	      0.74126850	     12.89466058	      2.42015868	     -7.50041633	    -40.94262489	     -1.36302714	     -0.34939802	      8.24902899	    -12.52211589	      4.35643275	     39.16756331	     90.00000001	      0.00000000	      0.00000000	     -0.48796628	     -9.50027905	      3.80084376	     48.39199785	     90.00000001	      0.00000000	      0.00000000
      3.59000000	      7.19040598	      2.32178670	     -1.75298909	      0.31550723	      0.93346298	      0.20724665	      5.48441888	     -4.79775892	    -36.71025852	     29.02243970	    -12.51276458	      0.50653713	     29.86834001	     31.68766264	     -7.50038979	     24.77247379	      2.23310693	    -18.79370788	     39.68471087	    -10.10690083	      0.69262887	     13.31307010	      5.78324980	     -7.50038979	    -40.92098995	     -1.32467114	     -0.40060615	      8.19392138	    -12.57172144	      4.52251221	     39.33172572	     90.00000001	      0.00000000	      0.00000000	     -0.63154889	     -9.49771398	      3.85065966	     48.28592323	     90.00000001	      0.00000000	      0.00000000
      3.60000000	      6.96317538	      2.17660853	     -1.57353169	      0.32120243	      0.93236065	      0.20632628	      5.42972433	     -4.49528546	    -36.51887901	     29.13492600	    -12.81552542	      0.50850039	     30.08280655	     31.17469839	     -7.50038369	     25.15751517	      2.23452312	    -18.95097955	     36.97650875	    -10.51373849	      0.64536182	     13.24672795	      6.70946170	     -7.50038369	    -40.73373918	     -1.29757138	     -0.43290918	      8.14428921	    -12.55885324	      4.55629315	     39.43484320	     90.00000001	      0.00000000	      0.00000000	     -0.76168700	     -9.49957611	      3.87216026	     48.23802988	     90.00000001	      0.00000000	      0.00000000
      3.61000000	      7.05769588	      1.96958337	     -1.48123493	      0.32745190	      0.93148369	      0.20536914	      4.90335117	     -4.32700197	    -36.40927452	     29.33657663	    -12.76957233	      0.51201985	     30.78809930	     30.84540910	     -7.50035938	     25.39620443	      1.71030114	    -21.97903206	     34.43476170	    -11.99184896	      0.60099997	     14.40640138	     14.06937065	     -7.50035938	    -40.84231827	     -1.24870322	     -0.44894934	      8.12209907	    -12.63069132	      4.79590690	     39.48196673	     90.00000001	      0.00000000	      0.00000000	     -0.86819667	     -9.49645644	      4.03648114	     47.85721985	     90.00000001	      0.00000000	      0.00000000
      3.62000000	      7.01643107	      1.73999288	     -1.38008595	      0.33366072	      0.93039519	      0.20438184	      4.56889541	     -4.02727731	    -36.28757418	     29.45549000	    -12.92419158	      0.51409528	     31.13102908	     30.46777486	     -7.50033278	     25.68826720	      1.28616413	    -23.79747157	     32.10141674	    -12.83647400	      0.56027542	     15.02125552	     18.70072928	     -7.50033278	    -40.80611966	     -1.17738816	     -0.44046532	      8.04976646	    -12.66825240	      5.00241431	     39.64845473	     90.00000001	      0.00000000	      0.00000000	     -1.08949455	     -9.45834113	      4.16151612	     47.80654484	     90.00000001	      0.00000000	      0.00000000
      3.63000000	      6.98817580	      1.50642597	     -1.30603197	      0.34000991	      0.92922637	      0.20334096	      4.21603102	     -3.74243274	    -36.15924869	     29.59430274	    -13.06533047	      0.51651802	     31.61306919	     30.12555708	     -7.50031155	     25.98040796	      0.80961122	    -25.65549864	     30.05443022	    -13.57214937	      0.52454876	     15.55349474	     23.20345679	     -7.50031155	    -40.75629338	     -1.12594563	     -0.42547535	      8.00988860	    -12.68129786	      5.18113002	     39.66742592	     90.00000001	      0.00000000	      0.00000000	     -1.26646934	     -9.42385577	      4.34172293	     47.58495067	     90.00000001	      0.00000000	      0.00000000
      3.64000000	      6.98759668	      1.25845347	     -1.25318823	      0.34653825	      0.92801423	      0.20226514	      3.81785841	     -3.45059302	    -36.05167930	     29.72097449	    -13.21299086	      0.51872886	     32.08056791	     29.83131462	     -7.50029393	     26.23281634	      0.27433286	    -27.43864986	     28.32793066	    -14.16978199	      0.49441566	     16.03248872	     27.32678166	     -7.50029393	    -40.70922365	     -1.07868397	     -0.40657228	      7.96438099	    -12.68331268	      5.35242990	     39.68147189	     90.00000001	      0.00000000	      0.00000000	     -1.47661141	     -9.39144278	      4.56845058	     47.37650698	     90.00000001	      0.00000000	      0.00000000
      3.65000000	      7.02697703	      1.05275934	     -1.17854790	      0.35319201	      0.92684915	      0.20103736	      3.35303260	     -3.28296295	    -35.96808710	     29.91358425	    -13.24335694	      0.52209054	     32.66032780	     29.53719451	     -7.50028632	     26.27414921	     -0.04597560	    -28.21673910	     26.78358219	    -14.41522919	      0.46746169	     16.32317905	     29.66655851	     -7.50028632	    -40.69124613	     -1.06604862	     -0.47331378	      7.94540376	    -12.62425965	      5.46383048	     39.65038258	     90.00000001	      0.00000000	      0.00000000	     -1.69849332	     -9.34726914	      4.76520597	     47.12091993	     90.00000001	      0.00000000	      0.00000000
      3.66000000	      7.04756463	      0.73223556	     -1.19173943	      0.36013947	      0.92544969	      0.19998496	      2.90573103	     -2.82920620	    -35.70070404	     29.96256546	    -13.47395581	      0.52294542	     32.92018965	     28.98753528	     -7.50027137	     26.53469139	     -0.83414506	    -30.22978577	     25.87223070	    -14.91883484	      0.45155561	     16.79691623	     33.07846836	     -7.50027137	    -40.58937673	     -1.00067730	     -0.36739429	      7.85739604	    -12.61836556	      5.67876619	     39.62779353	     90.00000001	      0.00000000	      0.00000000	     -1.94377577	     -9.30373702	      5.22883049	     46.82583654	     90.00000001	      0.00000000	      0.00000000
      3.67000000	      7.04035988	      0.42689078	     -1.10411261	      0.36712752	      0.92391461	      0.19873933	      2.51418790	     -2.53588301	    -35.72602067	     30.18934554	    -13.62506434	      0.52690348	     33.04760676	     28.96016107	     -7.50027082	     26.65474290	     -1.31271707	    -30.38906491	     25.33321775	    -14.92084142	      0.44214806	     16.85813725	     33.10891429	     -7.50027082	    -40.45039018	     -0.91792724	     -0.42275560	      7.72397030	    -12.48579716	      5.71363930	     39.60171092	     90.00000001	      0.00000000	      0.00000000	     -2.28902531	     -9.22701046	      5.28502367	     46.69464483	     90.00000001	      0.00000000	      0.00000000
      3.68000000	      7.27577573	      0.23211077	     -1.17480716	      0.37462019	      0.92276961	      0.19751778	      1.75720051	     -2.28306432	    -35.32076942	     30.24177819	    -13.74041109	      0.52781860	     33.90437228	     28.27871354	     -7.50025891	     26.33162447	     -1.80514839	    -31.90265374	     24.61879827	    -15.28770833	      0.42967909	     17.24772991	     35.29396330	     -7.50025891	    -40.50399816	     -1.01569324	     -0.40246679	      7.73888482	    -12.44233947	      5.97078446	     39.39451743	     90.00000001	      0.00000000	      0.00000000	     -2.45711985	     -9.22705016	      6.06284229	     46.06164992	     90.00000001	      0.00000000	      0.00000000
      3.69000000	      7.33975546	     -0.02008342	     -1.12854738	      0.38214795	      0.92115792	      0.19616693	      1.27776385	     -2.04744725	    -35.29689392	     30.48780875	    -13.94993270	      0.53211264	     34.00680946	     28.24523351	     -7.50025844	     26.17599254	     -2.17351082	    -32.08986528	     24.45454289	    -15.37806038	      0.42681229	     17.23141647	     35.20249225	     -7.50025844	    -40.34718338	     -1.01935568	     -0.46358719	      7.53971543	    -12.28711913	      6.00815416	     39.34527764	     90.00000001	      0.00000000	      0.00000000	     -2.84953490	     -9.12835093	      6.13165152	     45.91177584	     90.00000001	      0.00000000	      0.00000000
